<?xml version="1.0" encoding="UTF-8" standalone="no"?>
<!DOCTYPE svg PUBLIC "-//W3C//DTD SVG 1.1//EN" "http://www.w3.org/Graphics/SVG/1.1/DTD/svg11.dtd">
<svg version="1.1" xmlns="http://www.w3.org/2000/svg" xmlns:xlink="http://www.w3.org/1999/xlink" preserveAspectRatio="xMidYMid meet" viewBox="0 0 640 640" width="640" height="640"><defs><path d="M607.19 154.69L607.47 155.02L607.73 155.37L607.97 155.72L608.19 156.07L608.4 156.44L608.6 156.81L608.78 157.19L608.94 157.57L609.09 157.96L609.22 158.35L609.34 158.75L609.44 159.15L609.53 159.55L609.6 159.95L609.65 160.36L609.69 160.77L609.72 161.18L609.72 161.59L609.72 162L609.69 162.4L609.65 162.81L609.6 163.22L609.53 163.62L609.44 164.03L609.34 164.43L609.22 164.82L609.09 165.21L608.94 165.6L608.78 165.98L608.6 166.36L608.41 166.73L608.19 167.1L607.97 167.46L607.73 167.81L607.47 168.15L607.2 168.49L606.91 168.81L606.6 169.13L455.76 319.99L606.63 470.83L606.93 471.14L607.22 471.47L607.49 471.81L607.75 472.15L607.99 472.5L608.22 472.86L608.43 473.22L608.62 473.59L608.8 473.97L608.97 474.36L609.12 474.74L609.25 475.13L609.37 475.53L609.47 475.93L609.55 476.33L609.62 476.74L609.68 477.14L609.72 477.55L609.74 477.96L609.75 478.37L609.74 478.78L609.72 479.19L609.68 479.6L609.62 480L609.55 480.41L609.47 480.81L609.37 481.21L609.25 481.6L609.12 482L608.97 482.38L608.8 482.77L608.62 483.14L608.43 483.52L608.22 483.88L607.99 484.24L607.75 484.59L607.49 484.93L607.22 485.27L606.93 485.6L606.63 485.91L485.96 606.6L485.64 606.91L485.31 607.19L484.98 607.47L484.63 607.73L484.28 607.97L483.93 608.19L483.56 608.4L483.19 608.6L482.81 608.78L482.43 608.94L482.04 609.09L481.65 609.22L481.25 609.34L480.85 609.44L480.45 609.53L480.05 609.6L479.64 609.65L479.23 609.69L478.82 609.72L478.41 609.72L478 609.72L477.6 609.69L477.19 609.65L476.78 609.6L476.38 609.53L475.97 609.44L475.57 609.34L475.18 609.22L474.79 609.09L474.4 608.94L474.02 608.78L473.64 608.6L473.27 608.41L472.9 608.19L472.54 607.97L472.19 607.73L471.85 607.47L471.51 607.2L471.19 606.91L470.87 606.6L320.01 455.76L169.17 606.63L168.86 606.93L168.53 607.22L168.19 607.49L167.85 607.75L167.5 607.99L167.14 608.22L166.78 608.43L166.41 608.62L166.03 608.8L165.64 608.97L165.26 609.12L164.87 609.25L164.47 609.37L164.07 609.47L163.67 609.55L163.26 609.62L162.86 609.68L162.45 609.72L162.04 609.74L161.63 609.75L161.22 609.74L160.81 609.72L160.4 609.68L160 609.62L159.59 609.55L159.19 609.47L158.79 609.37L158.4 609.25L158 609.12L157.62 608.97L157.23 608.8L156.86 608.62L156.48 608.43L156.12 608.22L155.76 607.99L155.41 607.75L155.07 607.49L154.73 607.22L154.4 606.93L154.09 606.63L33.4 485.96L33.09 485.64L32.81 485.31L32.53 484.98L32.27 484.63L32.03 484.28L31.81 483.93L31.6 483.56L31.4 483.19L31.22 482.81L31.06 482.43L30.91 482.04L30.78 481.65L30.66 481.25L30.56 480.85L30.47 480.45L30.4 480.05L30.35 479.64L30.31 479.23L30.28 478.82L30.28 478.41L30.28 478L30.31 477.6L30.35 477.19L30.4 476.78L30.47 476.38L30.56 475.97L30.66 475.57L30.78 475.18L30.91 474.79L31.06 474.4L31.22 474.02L31.4 473.64L31.59 473.27L31.81 472.9L32.03 472.54L32.27 472.19L32.53 471.85L32.8 471.51L33.09 471.19L33.4 470.87L184.24 320.01L33.37 169.17L33.07 168.86L32.78 168.53L32.51 168.19L32.25 167.85L32.01 167.5L31.78 167.14L31.57 166.78L31.38 166.41L31.2 166.03L31.03 165.64L30.88 165.26L30.75 164.87L30.63 164.47L30.53 164.07L30.45 163.67L30.38 163.26L30.32 162.86L30.28 162.45L30.26 162.04L30.25 161.63L30.26 161.22L30.28 160.81L30.32 160.4L30.38 160L30.45 159.59L30.53 159.19L30.63 158.79L30.75 158.4L30.88 158L31.03 157.62L31.2 157.23L31.38 156.86L31.57 156.48L31.78 156.12L32.01 155.76L32.25 155.41L32.51 155.07L32.78 154.73L33.07 154.4L33.37 154.09L154.04 33.4L154.36 33.09L154.69 32.81L155.02 32.53L155.37 32.27L155.72 32.03L156.07 31.81L156.44 31.6L156.81 31.4L157.19 31.22L157.57 31.06L157.96 30.91L158.35 30.78L158.75 30.66L159.15 30.56L159.55 30.47L159.95 30.4L160.36 30.35L160.77 30.31L161.18 30.28L161.59 30.28L162 30.28L162.4 30.31L162.81 30.35L163.22 30.4L163.62 30.47L164.03 30.56L164.43 30.66L164.82 30.78L165.21 30.91L165.6 31.06L165.98 31.22L166.36 31.4L166.73 31.59L167.1 31.81L167.46 32.03L167.81 32.27L168.15 32.53L168.49 32.8L168.81 33.09L169.13 33.4L319.99 184.24L470.83 33.37L471.14 33.07L471.47 32.78L471.81 32.51L472.15 32.25L472.5 32.01L472.86 31.78L473.22 31.57L473.59 31.38L473.97 31.2L474.36 31.03L474.74 30.88L475.13 30.75L475.53 30.63L475.93 30.53L476.33 30.45L476.74 30.38L477.14 30.32L477.55 30.28L477.96 30.26L478.37 30.25L478.78 30.26L479.19 30.28L479.6 30.32L480 30.38L480.41 30.45L480.81 30.53L481.21 30.63L481.6 30.75L482 30.88L482.38 31.03L482.77 31.2L483.14 31.38L483.52 31.57L483.88 31.78L484.24 32.01L484.59 32.25L484.93 32.51L485.27 32.78L485.6 33.07L485.91 33.37L606.6 154.04L606.91 154.36L607.19 154.69Z" id="a2RLJfjJy2"></path></defs><g><g><g><use xlink:href="#a2RLJfjJy2" opacity="1" fill="#000000" fill-opacity="1"></use><g><use xlink:href="#a2RLJfjJy2" opacity="1" fill-opacity="0" stroke="#686694" stroke-width="0" stroke-opacity="1"></use></g></g></g></g></svg>